<mxfile host="Electron" modified="2023-05-04T15:47:22.084Z" agent="Mozilla/5.0 (Windows NT 10.0; Win64; x64) AppleWebKit/537.36 (KHTML, like Gecko) draw.io/21.2.1 Chrome/112.0.5615.87 Electron/24.1.2 Safari/537.36" etag="nOjj2wnGaYRv_jNYt2_9" version="21.2.1" type="device">
  <diagram id="C5RBs43oDa-KdzZeNtuy" name="Page-1">
    <mxGraphModel dx="1195" dy="698" grid="1" gridSize="10" guides="1" tooltips="1" connect="1" arrows="1" fold="1" page="1" pageScale="1" pageWidth="827" pageHeight="1169" math="0" shadow="0">
      <root>
        <mxCell id="WIyWlLk6GJQsqaUBKTNV-0" />
        <mxCell id="WIyWlLk6GJQsqaUBKTNV-1" parent="WIyWlLk6GJQsqaUBKTNV-0" />
        <mxCell id="10BISCggaVwLtJeOQboz-12" value="" style="edgeStyle=orthogonalEdgeStyle;rounded=0;orthogonalLoop=1;jettySize=auto;html=1;endArrow=block;endFill=0;exitX=1;exitY=0.5;exitDx=0;exitDy=0;" parent="WIyWlLk6GJQsqaUBKTNV-1" source="10BISCggaVwLtJeOQboz-48" target="10BISCggaVwLtJeOQboz-11" edge="1">
          <mxGeometry relative="1" as="geometry">
            <mxPoint x="140" y="50" as="sourcePoint" />
          </mxGeometry>
        </mxCell>
        <mxCell id="10BISCggaVwLtJeOQboz-14" value="Não" style="edgeStyle=orthogonalEdgeStyle;rounded=0;orthogonalLoop=1;jettySize=auto;html=1;endArrow=block;endFill=0;exitX=0;exitY=0.5;exitDx=0;exitDy=0;entryX=1;entryY=0.5;entryDx=0;entryDy=0;" parent="WIyWlLk6GJQsqaUBKTNV-1" source="10BISCggaVwLtJeOQboz-11" target="10BISCggaVwLtJeOQboz-47" edge="1">
          <mxGeometry relative="1" as="geometry">
            <mxPoint x="190" y="189.9999999999999" as="sourcePoint" />
          </mxGeometry>
        </mxCell>
        <mxCell id="10BISCggaVwLtJeOQboz-19" value="Sim" style="edgeStyle=orthogonalEdgeStyle;shape=connector;rounded=0;orthogonalLoop=1;jettySize=auto;html=1;labelBackgroundColor=default;strokeColor=default;fontFamily=Helvetica;fontSize=11;fontColor=default;endArrow=block;endFill=0;entryX=0.5;entryY=0;entryDx=0;entryDy=0;" parent="WIyWlLk6GJQsqaUBKTNV-1" source="10BISCggaVwLtJeOQboz-11" target="10BISCggaVwLtJeOQboz-18" edge="1">
          <mxGeometry relative="1" as="geometry" />
        </mxCell>
        <mxCell id="10BISCggaVwLtJeOQboz-11" value="Comprar o jogo" style="rhombus;whiteSpace=wrap;html=1;rounded=0;" parent="WIyWlLk6GJQsqaUBKTNV-1" vertex="1">
          <mxGeometry x="210" y="100" width="120" height="80" as="geometry" />
        </mxCell>
        <mxCell id="10BISCggaVwLtJeOQboz-20" value="Não" style="edgeStyle=orthogonalEdgeStyle;shape=connector;rounded=0;orthogonalLoop=1;jettySize=auto;html=1;labelBackgroundColor=default;strokeColor=default;fontFamily=Helvetica;fontSize=11;fontColor=default;endArrow=block;endFill=0;entryX=0.5;entryY=0;entryDx=0;entryDy=0;" parent="WIyWlLk6GJQsqaUBKTNV-1" source="10BISCggaVwLtJeOQboz-18" target="10BISCggaVwLtJeOQboz-46" edge="1">
          <mxGeometry relative="1" as="geometry">
            <mxPoint x="330" y="200" as="targetPoint" />
          </mxGeometry>
        </mxCell>
        <mxCell id="10BISCggaVwLtJeOQboz-23" value="Sim" style="edgeStyle=orthogonalEdgeStyle;shape=connector;rounded=0;orthogonalLoop=1;jettySize=auto;html=1;labelBackgroundColor=default;strokeColor=default;fontFamily=Helvetica;fontSize=11;fontColor=default;endArrow=block;endFill=0;" parent="WIyWlLk6GJQsqaUBKTNV-1" source="10BISCggaVwLtJeOQboz-18" target="10BISCggaVwLtJeOQboz-45" edge="1">
          <mxGeometry relative="1" as="geometry" />
        </mxCell>
        <mxCell id="10BISCggaVwLtJeOQboz-18" value="Instalar jogo" style="rhombus;whiteSpace=wrap;html=1;rounded=0;" parent="WIyWlLk6GJQsqaUBKTNV-1" vertex="1">
          <mxGeometry x="394" y="160" width="120" height="80" as="geometry" />
        </mxCell>
        <mxCell id="10BISCggaVwLtJeOQboz-28" value="" style="edgeStyle=orthogonalEdgeStyle;shape=connector;rounded=0;orthogonalLoop=1;jettySize=auto;html=1;labelBackgroundColor=default;strokeColor=default;fontFamily=Helvetica;fontSize=11;fontColor=default;endArrow=block;endFill=0;exitX=0;exitY=0.5;exitDx=0;exitDy=0;" parent="WIyWlLk6GJQsqaUBKTNV-1" source="10BISCggaVwLtJeOQboz-46" target="10BISCggaVwLtJeOQboz-27" edge="1">
          <mxGeometry relative="1" as="geometry" />
        </mxCell>
        <mxCell id="10BISCggaVwLtJeOQboz-25" value="" style="edgeStyle=orthogonalEdgeStyle;shape=connector;rounded=0;orthogonalLoop=1;jettySize=auto;html=1;labelBackgroundColor=default;strokeColor=default;fontFamily=Helvetica;fontSize=11;fontColor=default;endArrow=block;endFill=0;exitX=0.5;exitY=1;exitDx=0;exitDy=0;" parent="WIyWlLk6GJQsqaUBKTNV-1" source="10BISCggaVwLtJeOQboz-45" target="10BISCggaVwLtJeOQboz-24" edge="1">
          <mxGeometry relative="1" as="geometry" />
        </mxCell>
        <mxCell id="10BISCggaVwLtJeOQboz-37" value="Não" style="edgeStyle=orthogonalEdgeStyle;shape=connector;rounded=0;orthogonalLoop=1;jettySize=auto;html=1;labelBackgroundColor=default;strokeColor=default;fontFamily=Helvetica;fontSize=11;fontColor=default;endArrow=block;endFill=0;entryX=1;entryY=0.5;entryDx=0;entryDy=0;" parent="WIyWlLk6GJQsqaUBKTNV-1" source="10BISCggaVwLtJeOQboz-24" target="10BISCggaVwLtJeOQboz-44" edge="1">
          <mxGeometry relative="1" as="geometry">
            <mxPoint x="534" y="339.9999999999999" as="targetPoint" />
          </mxGeometry>
        </mxCell>
        <mxCell id="10BISCggaVwLtJeOQboz-41" value="" style="edgeStyle=orthogonalEdgeStyle;shape=connector;rounded=0;orthogonalLoop=1;jettySize=auto;html=1;labelBackgroundColor=default;strokeColor=default;fontFamily=Helvetica;fontSize=11;fontColor=default;endArrow=block;endFill=0;" parent="WIyWlLk6GJQsqaUBKTNV-1" source="10BISCggaVwLtJeOQboz-24" edge="1">
          <mxGeometry relative="1" as="geometry">
            <mxPoint x="770" y="340" as="targetPoint" />
          </mxGeometry>
        </mxCell>
        <mxCell id="10BISCggaVwLtJeOQboz-42" value="Sim" style="edgeStyle=orthogonalEdgeStyle;shape=connector;rounded=0;orthogonalLoop=1;jettySize=auto;html=1;labelBackgroundColor=default;strokeColor=default;fontFamily=Helvetica;fontSize=11;fontColor=default;endArrow=block;endFill=0;entryX=0;entryY=0.5;entryDx=0;entryDy=0;" parent="WIyWlLk6GJQsqaUBKTNV-1" source="10BISCggaVwLtJeOQboz-24" target="pioCtvH_Lg6mVrBZR3Xo-0" edge="1">
          <mxGeometry relative="1" as="geometry">
            <mxPoint x="770" y="340" as="targetPoint" />
          </mxGeometry>
        </mxCell>
        <mxCell id="10BISCggaVwLtJeOQboz-24" value="Eu sei o que fazer?" style="rhombus;whiteSpace=wrap;html=1;rounded=0;" parent="WIyWlLk6GJQsqaUBKTNV-1" vertex="1">
          <mxGeometry x="602" y="300" width="104" height="80" as="geometry" />
        </mxCell>
        <mxCell id="10BISCggaVwLtJeOQboz-27" value="4.0" style="ellipse;whiteSpace=wrap;html=1;fontSize=11;rounded=0;" parent="WIyWlLk6GJQsqaUBKTNV-1" vertex="1">
          <mxGeometry x="140" y="255" width="30" height="30" as="geometry" />
        </mxCell>
        <mxCell id="10BISCggaVwLtJeOQboz-30" value="4.0" style="text;strokeColor=none;align=center;fillColor=none;html=1;verticalAlign=middle;whiteSpace=wrap;rounded=0;fontSize=11;fontFamily=Helvetica;fontColor=default;" parent="WIyWlLk6GJQsqaUBKTNV-1" vertex="1">
          <mxGeometry x="441" y="170" width="26" height="10" as="geometry" />
        </mxCell>
        <mxCell id="10BISCggaVwLtJeOQboz-31" value="3.0" style="text;strokeColor=none;align=center;fillColor=none;html=1;verticalAlign=middle;whiteSpace=wrap;rounded=0;fontSize=11;fontFamily=Helvetica;fontColor=default;" parent="WIyWlLk6GJQsqaUBKTNV-1" vertex="1">
          <mxGeometry x="260" y="110" width="20" height="10" as="geometry" />
        </mxCell>
        <mxCell id="10BISCggaVwLtJeOQboz-44" value="" style="rounded=1;whiteSpace=wrap;html=1;fontFamily=Helvetica;fontSize=11;fontColor=default;" parent="WIyWlLk6GJQsqaUBKTNV-1" vertex="1">
          <mxGeometry x="394" y="310" width="120" height="60" as="geometry" />
        </mxCell>
        <mxCell id="10BISCggaVwLtJeOQboz-45" value="Iniciair o jogo" style="rounded=1;whiteSpace=wrap;html=1;strokeColor=default;fontFamily=Helvetica;fontSize=11;fontColor=default;fillColor=default;" parent="WIyWlLk6GJQsqaUBKTNV-1" vertex="1">
          <mxGeometry x="594" y="170" width="120" height="60" as="geometry" />
        </mxCell>
        <mxCell id="10BISCggaVwLtJeOQboz-35" value="6.0" style="text;strokeColor=none;align=center;fillColor=none;html=1;verticalAlign=middle;whiteSpace=wrap;rounded=0;fontSize=11;fontFamily=Helvetica;fontColor=default;" parent="WIyWlLk6GJQsqaUBKTNV-1" vertex="1">
          <mxGeometry x="690" y="170" width="24" height="20" as="geometry" />
        </mxCell>
        <mxCell id="10BISCggaVwLtJeOQboz-46" value="Jogo não instalado" style="rounded=1;whiteSpace=wrap;html=1;fontFamily=Helvetica;fontSize=11;fontColor=default;" parent="WIyWlLk6GJQsqaUBKTNV-1" vertex="1">
          <mxGeometry x="220" y="240" width="120" height="60" as="geometry" />
        </mxCell>
        <mxCell id="10BISCggaVwLtJeOQboz-34" value="5.0" style="text;strokeColor=none;align=center;fillColor=none;html=1;verticalAlign=middle;whiteSpace=wrap;rounded=0;fontSize=11;fontFamily=Helvetica;fontColor=default;" parent="WIyWlLk6GJQsqaUBKTNV-1" vertex="1">
          <mxGeometry x="310" y="240" width="30" height="20" as="geometry" />
        </mxCell>
        <mxCell id="10BISCggaVwLtJeOQboz-47" value="Não tem jogo" style="rounded=1;whiteSpace=wrap;html=1;fontFamily=Helvetica;fontSize=11;fontColor=default;" parent="WIyWlLk6GJQsqaUBKTNV-1" vertex="1">
          <mxGeometry x="20" y="110" width="120" height="60" as="geometry" />
        </mxCell>
        <mxCell id="10BISCggaVwLtJeOQboz-33" value="2.0" style="text;strokeColor=none;align=center;fillColor=none;html=1;verticalAlign=middle;whiteSpace=wrap;rounded=0;fontSize=11;fontFamily=Helvetica;fontColor=default;" parent="WIyWlLk6GJQsqaUBKTNV-1" vertex="1">
          <mxGeometry x="120" y="110" width="20" height="20" as="geometry" />
        </mxCell>
        <mxCell id="10BISCggaVwLtJeOQboz-48" value="Ver o Trailer" style="rounded=1;whiteSpace=wrap;html=1;fontFamily=Helvetica;fontSize=11;fontColor=default;" parent="WIyWlLk6GJQsqaUBKTNV-1" vertex="1">
          <mxGeometry x="20" y="20" width="120" height="60" as="geometry" />
        </mxCell>
        <mxCell id="10BISCggaVwLtJeOQboz-32" value="1.0" style="text;strokeColor=none;align=center;fillColor=none;html=1;verticalAlign=middle;whiteSpace=wrap;rounded=0;fontSize=11;fontFamily=Helvetica;fontColor=default;" parent="WIyWlLk6GJQsqaUBKTNV-1" vertex="1">
          <mxGeometry x="120" y="20" width="20" height="20" as="geometry" />
        </mxCell>
        <mxCell id="pioCtvH_Lg6mVrBZR3Xo-0" value="&lt;span style=&quot;color: rgb(240, 240, 240); font-family: Helvetica; font-size: 12px; font-style: normal; font-variant-ligatures: normal; font-variant-caps: normal; font-weight: 400; letter-spacing: normal; orphans: 2; text-align: center; text-indent: 0px; text-transform: none; widows: 2; word-spacing: 0px; -webkit-text-stroke-width: 0px; background-color: rgb(42, 37, 47); text-decoration-thickness: initial; text-decoration-style: initial; text-decoration-color: initial; float: none; display: inline !important;&quot;&gt;Explorar o ambiente&lt;/span&gt;" style="rounded=1;whiteSpace=wrap;html=1;" vertex="1" parent="WIyWlLk6GJQsqaUBKTNV-1">
          <mxGeometry x="800" y="310" width="120" height="60" as="geometry" />
        </mxCell>
      </root>
    </mxGraphModel>
  </diagram>
</mxfile>
